<svg width="640px" height="181px" viewBox="0 0 640 181" version="1.1" xmlns="http://www.w3.org/2000/svg"
  xmlns:xlink="http://www.w3.org/1999/xlink">
  <g id="页面-1" stroke="none" stroke-width="1" fill="none" fill-rule="evenodd">
    <g id="logo-sha" fill-rule="nonzero">
      <g id="sha">
        <g id="a" transform="translate(448.201893, 0.000000)">
          <polygon id="路径" fill="#41B883" points="0 180.398671 66.718143 180.398671 129.052859 62.82245 95.7070304 0">
          </polygon>
          <polygon id="路径" fill="#35495E"
            points="191.798107 180.398671 125.079964 180.398671 62.3479589 62.82245 95.7070304 0 191.798107 180.398671">
          </polygon>
          <polygon id="路径" fill="#41B883"
            points="95.7070304 125.6449 129.052859 62.82245 95.7070304 0 62.3479589 62.82245"></polygon>
        </g>
        <g id="h" transform="translate(224.100946, 0.000000)">
          <polygon id="路径" fill="#35495E" points="0 0 86.8138801 0 86.8138801 180.398671 0 180.398671"></polygon>
          <polygon id="路径" fill="#35495E"
            points="104.984227 0 191.798107 0 191.798107 180.398671 104.984227 180.398671"></polygon>
          <polygon id="路径" fill="#41B883"
            points="0 68.7707641 0 110.631229 191.798107 110.631229 191.798107 68.7707641"></polygon>
        </g>
        <g id="s">
          <path
            d="M25.2365931,61.7940199 L134.15742,61.7940199 C165.946019,61.7940199 191.798107,88.728548 191.798107,121.313676 C191.766941,153.932176 165.978574,180.366723 134.15742,180.398671 L25.2365931,180.398671 L25.2365931,61.7940199 Z"
            id="路径" fill="#35495E"></path>
          <path
            d="M167.570978,118.604651 L58.2682899,118.604651 C26.1713282,118.399089 0.20124079,91.871269 0,59.0849948 C0,26.4998665 26.3682451,0 58.2682899,0 L167.570978,0 L167.570978,118.604651 Z"
            id="路径" fill="#41B883"></path>
        </g>
      </g>
    </g>
  </g>
</svg>